<?xml version="1.0"?>
<svg xmlns="http://www.w3.org/2000/svg" xmlns:xlink="http://www.w3.org/1999/xlink" width="512" height="512" viewBox="0 0 512 512"><defs><linearGradient id="a" data-name="New Gradient Swatch 1" x1="18.395" y1="512.645" x2="541.798" y2="-10.757" gradientUnits="userSpaceOnUse"><stop offset="0" stop-color="#003f8a"/><stop offset="0.518" stop-color="#00d7df"/><stop offset="1" stop-color="#006df0"/></linearGradient><linearGradient id="b" x1="-11.125" y1="483.125" x2="512.277" y2="-40.277" xlink:href="#a"/><linearGradient id="c" x1="14.875" y1="509.125" x2="538.277" y2="-14.277" xlink:href="#a"/><linearGradient id="d" x1="28.875" y1="523.125" x2="552.277" y2="-0.277" xlink:href="#a"/><linearGradient id="e" x1="52.875" y1="547.125" x2="576.277" y2="23.723" xlink:href="#a"/><linearGradient id="f" x1="80.875" y1="575.125" x2="604.277" y2="51.723" xlink:href="#a"/><linearGradient id="g" x1="-75.125" y1="419.125" x2="448.277" y2="-104.277" xlink:href="#a"/><linearGradient id="h" x1="-115.125" y1="379.125" x2="408.277" y2="-144.277" xlink:href="#a"/><linearGradient id="i" x1="-119.125" y1="375.125" x2="404.277" y2="-148.277" xlink:href="#a"/><linearGradient id="j" x1="-87.125" y1="407.125" x2="436.277" y2="-116.277" xlink:href="#a"/></defs><g><path d="M472,96H296V71.93A8,8,0,0,0,295,56H232a8,8,0,0,0,0,16V96H40A32.036,32.036,0,0,0,8,128V400a32.036,32.036,0,0,0,32,32H204.9l-10.67,32H168a8,8,0,0,0-8,8v16H80a8,8,0,0,0,0,16H432a8,8,0,0,0,0-16H352V472a8,8,0,0,0-8-8H317.77L307.1,432H472a32.036,32.036,0,0,0,32-32V128A32.036,32.036,0,0,0,472,96ZM242.18,227.02a8.01,8.01,0,0,0,5.82-7.7V72h32V219.32a8.01,8.01,0,0,0,5.82,7.7A80.254,80.254,0,0,1,344,304q0,.885-.03,1.77a220.216,220.216,0,0,1-25.1,4.31c-21.9,2.4-39.64.59-51.29-5.24-26.07-13.03-65.12-7.01-83.53-3.03A80.255,80.255,0,0,1,242.18,227.02Zm99.61,95.63A80.182,80.182,0,0,1,311.99,368H216.01a80.116,80.116,0,0,1-30.78-50.05,222.148,222.148,0,0,1,23.9-4.03c21.9-2.4,39.64-.59,51.29,5.24,11.95,5.97,26.62,7.94,40.78,7.94A208.238,208.238,0,0,0,341.79,322.65ZM24,128a16.021,16.021,0,0,1,16-16H232V213.47A95.984,95.984,0,0,0,192.48,368H180.94L136,278.11V152a8,8,0,0,0,0-16H72a8,8,0,0,0,0,16V278.11L27.06,368H24Zm96.84,155.58L127.06,296H80.94l6.22-12.42A8.081,8.081,0,0,0,88,280V152h32V280A8.081,8.081,0,0,0,120.84,283.58ZM135.06,312l28,56H44.94l28-56ZM336,480v8H176v-8ZM211.1,464l10.67-32h68.46l10.67,32ZM488,400a16.021,16.021,0,0,1-16,16H40a16.021,16.021,0,0,1-16-16V384H488ZM424.74,275.35,449.04,328H382.96l24.3-52.65A7.907,7.907,0,0,0,408,272V192h16v80A7.907,7.907,0,0,0,424.74,275.35ZM456.42,344l11.08,24h-103l11.08-24ZM488,368h-2.88L440,270.24V192a8,8,0,0,0,0-16H392a8,8,0,0,0,0,16v78.24L346.88,368H335.52A95.984,95.984,0,0,0,296,213.47V112H472a16.021,16.021,0,0,1,16,16Z" fill="url(#a)"/><path d="M96,392H48a8,8,0,0,0,0,16H96a8,8,0,0,0,0-16Z" fill="url(#b)"/><path d="M128,392h-8a8,8,0,0,0,0,16h8a8,8,0,0,0,0-16Z" fill="url(#c)"/><circle cx="216" cy="336" r="8" fill="url(#d)"/><circle cx="248" cy="352" r="8" fill="url(#e)"/><circle cx="312" cy="344" r="8" fill="url(#f)"/><circle cx="304" cy="40" r="8" fill="url(#g)"/><circle cx="248" cy="16" r="8" fill="url(#h)"/><circle cx="216" cy="40" r="8" fill="url(#i)"/><circle cx="272" cy="48" r="8" fill="url(#j)"/></g></svg>
