<svg id="Layer_5" enable-background="new 0 0 64 64" height="512" viewBox="0 0 64 64" width="512" xmlns="http://www.w3.org/2000/svg" xmlns:xlink="http://www.w3.org/1999/xlink"><linearGradient id="SVGID_1_" gradientUnits="userSpaceOnUse" x1="32" x2="32" y1="63.003" y2="1"><stop offset="0" stop-color="#9f2fff"/><stop offset="1" stop-color="#0bb1d3"/></linearGradient><path d="m18 33h2v2h-2zm4 2h2v-2h-2zm41-8c0 14.336-11.664 26-26 26-4.201 0-8.312-1.013-12.003-2.936-.035 6.036-4.953 10.936-10.997 10.936-1.375 0-2.686-.265-3.9-.727-.54.358-1.072.696-1.586.992-2.012 1.158-3.649 1.739-4.896 1.739-.797 0-1.435-.237-1.909-.712-1.749-1.749.054-5.442 2.016-8.396-.461-1.214-.725-2.523-.725-3.896 0-6.044 4.9-10.962 10.936-10.997-1.923-3.691-2.936-7.802-2.936-12.003 0-14.336 11.664-26 26-26s26 11.664 26 26zm-58 23c0 3.48 1.99 6.499 4.888 7.996 2.096-1.486 4.342-3.399 6.526-5.583 2.183-2.183 4.097-4.429 5.583-6.526-1.498-2.897-4.517-4.887-7.997-4.887-4.962 0-9 4.038-9 9zm18.531-6.483c1.711-2.974 1.541-4.199 1.346-4.394-.299-.3-1.861-.203-4.908 1.651 1.3.844 2.409 1.952 3.253 3.251.103-.17.214-.342.309-.508zm-15.506 15.706c-1.299-.845-2.407-1.954-3.251-3.254-1.854 3.046-1.95 4.609-1.65 4.908.195.194 1.421.364 4.394-1.346.165-.095.337-.206.507-.308zm14.975-9.223c0-.631-.067-1.247-.191-1.842-1.412 1.859-3.102 3.791-4.981 5.67s-3.811 3.569-5.67 4.981c.595.124 1.211.191 1.842.191 4.962 0 9-4.038 9-9zm38-23c0-.007-.001-.014-.001-.021l-1.998.002-.002-2 1.91-.002c-.53-6.324-3.52-11.956-8.01-15.936l-8.897-.032c-.536-.021-1.037.205-1.416.582-.378.376-.586.878-.586 1.412 0 1.1.895 1.995 1.995 1.995h4.011c2.202 0 3.994 1.792 3.994 3.995 0 2.213-1.792 4.005-3.995 4.005h-7.011c-1.099 0-1.994.895-1.994 1.995 0 .541.208 1.042.585 1.418s.877.583 1.41.583h.002l12.002-.01.002 2-12.002.01c-.001 0-.003 0-.005 0-1.066 0-2.068-.415-2.822-1.168-.756-.754-1.172-1.758-1.172-2.826 0-2.21 1.792-4.002 3.995-4.002h7.011c1.1 0 1.995-.895 1.995-1.995-.001-1.11-.896-2.005-1.996-2.005h-4.011c-2.202 0-3.994-1.792-3.994-3.995 0-1.07.417-2.075 1.175-2.83s1.768-1.138 2.834-1.165l6.29.023c-3.81-2.545-8.383-4.033-13.299-4.033-7.091 0-13.472 3.094-17.869 8h1.869v2h-3.475c-2.843 3.944-4.525 8.778-4.525 14 0 .67.037 1.336.092 2h12.908c1.103 0 2-.897 2-2s-.897-2-2-2h-3c-2.206 0-4-1.794-4-4s1.794-4 4-4h9c1.103 0 2-.897 2-2s-.897-2-2-2h-5v-2h5c2.206 0 4 1.794 4 4s-1.794 4-4 4h-9c-1.103 0-2 .897-2 2s.897 2 2 2h3c2.206 0 4 1.794 4 4s-1.794 4-4 4h-12.652c.113.673.254 1.34.424 2h2.228v2l-1.623.015c.522 1.476 1.195 2.898 2.003 4.252.521.115 1.025.272 1.515.459 2.954-1.962 6.646-3.767 8.396-2.016 1.217 1.217.872 3.506-1.027 6.805-.296.514-.634 1.046-.992 1.585.187.492.345.998.461 1.52 3.701 2.206 7.93 3.38 12.267 3.38 3.917 0 7.615-.949 10.884-2.621-.264-.796-1.01-1.379-1.884-1.379h-11c-2.206 0-4-1.794-4-4s1.794-4 4-4h6c1.103 0 2-.897 2-2s-.897-2-2-2h-15v-2h15c2.206 0 4 1.794 4 4s-1.794 4-4 4h-6c-1.103 0-2 .897-2 2s.897 2 2 2h11c1.614 0 3.022.984 3.648 2.384 6.809-4.24 11.352-11.79 11.352-20.384zm-7.584 11.428 1.641 1.145c2.161-3.097 3.49-6.721 3.845-10.478l-1.991-.188c-.324 3.413-1.532 6.706-3.495 9.521zm-3.462 3.81 1.296 1.523c.758-.645 1.481-1.35 2.147-2.094l-1.49-1.334c-.606.678-1.263 1.319-1.953 1.905zm-12.954-37.238c-.698 0-1.401.033-2.091.098l.188 1.991c.628-.059 1.268-.089 1.903-.089zm-6.201.886.562 1.92c.608-.178 1.231-.329 1.852-.448l-.377-1.964c-.683.131-1.368.296-2.037.492zm-3.886 1.557.918 1.777c.563-.291 1.146-.558 1.731-.792l-.744-1.856c-.645.259-1.286.552-1.905.871zm30.088 19.539-.002-2-2 .002.002 2zm-34.001-13.982h2v-2h-2zm-9 32v-2c-3.86 0-7 3.14-7 7h2c0-2.757 2.243-5 5-5z" fill="url(#SVGID_1_)"/></svg>